<svg width="14" height="15" viewBox="0 0 14 15" fill="none" xmlns="http://www.w3.org/2000/svg">
<path d="M11.9366 2.66934L11.9366 2.66942C13.1155 3.75355 13.6996 5.06225 13.6996 6.5956C13.6996 7.80758 13.34 8.83843 12.626 9.6911L12.6259 9.69122C11.9116 10.5467 11.0716 10.9663 10.1021 10.9663C9.45007 10.9663 8.96649 10.7182 8.63628 10.2216L8.56273 10.111L8.47677 10.2123C8.02801 10.741 7.49566 11.0011 6.87283 11.0011C6.17247 11.0011 5.5734 10.709 5.06854 10.1083L5.0684 10.1082C4.5655 9.51242 4.31076 8.72124 4.31076 7.72999C4.31076 6.71717 4.59619 5.89703 5.16538 5.26316L5.16553 5.26299C5.73396 4.62708 6.41383 4.31178 7.20726 4.31178C7.70115 4.31178 8.15813 4.48169 8.57808 4.82435L8.69699 4.92138L8.73771 4.7734L8.82719 4.44823H10.3503L9.86638 8.40545L9.86637 8.40544L9.8662 8.40707C9.83657 8.6872 9.82016 8.9318 9.82016 9.14263C9.82016 9.2833 9.85258 9.40725 9.93527 9.49605C10.0192 9.5862 10.1384 9.62255 10.2733 9.62255C10.7558 9.62255 11.2019 9.31997 11.614 8.75781C12.0331 8.18879 12.2408 7.47651 12.2408 6.63306C12.2408 5.396 11.7877 4.36556 10.8835 3.54896C9.98067 2.73372 8.87263 2.32726 7.56844 2.32726C6.15104 2.32726 4.95064 2.8245 3.97893 3.81258C3.0042 4.8037 2.51619 6.03873 2.51619 7.51328C2.51619 8.87301 2.97212 10.0607 3.87958 11.069L3.87959 11.069C4.79626 12.0872 6.08607 12.5896 7.73432 12.5896C8.77161 12.5896 9.83374 12.3561 10.9146 11.8913C11.2787 11.7364 11.6948 11.9057 11.842 12.2702L11.8421 12.2702C11.9844 12.6226 11.8144 13.0259 11.4621 13.1762L11.462 13.1762C10.2432 13.6982 9.00176 13.9574 7.737 13.9574C5.63719 13.9574 3.97937 13.3201 2.74675 12.0534C1.51535 10.7824 0.899561 9.26893 0.899561 7.50526C0.899561 5.66432 1.54711 4.13092 2.84044 2.89553C4.13485 1.65912 5.70176 1.04238 7.54436 1.04238C9.29829 1.04238 10.7609 1.58572 11.9366 2.66934ZM8.14098 8.81168L8.14116 8.81142C8.4565 8.38447 8.61545 7.89817 8.61823 7.35059V7.35008C8.61823 6.90669 8.48843 6.54282 8.22085 6.26652C7.95816 5.99526 7.65215 5.85617 7.30625 5.85617C6.90497 5.85617 6.57196 6.04743 6.31048 6.40554C6.04838 6.76451 5.92203 7.23129 5.92203 7.79688C5.92203 8.25648 6.01285 8.64698 6.20059 8.96571C6.38795 9.28838 6.64734 9.46469 6.97717 9.46469C7.4359 9.46469 7.82444 9.23747 8.14098 8.81168Z" fill="#A68563" stroke="#A68563" stroke-width="0.2"/>
</svg>
