<svg width="18" height="18" viewBox="0 0 18 18" fill="none" xmlns="http://www.w3.org/2000/svg">
<path d="M10.7219 10.6194C11.271 10.0702 11.5455 9.40766 11.5455 8.63158C11.5455 7.85551 11.271 7.19292 10.7219 6.64382C10.1728 6.09471 9.51016 5.82016 8.73409 5.82016C7.95802 5.82016 7.29543 6.09471 6.74632 6.64382C6.19722 7.19292 5.92266 7.85551 5.92266 8.63158C5.92266 9.40766 6.19722 10.0702 6.74632 10.6194C7.29543 11.1685 7.95802 11.443 8.73409 11.443C9.51016 11.443 10.1728 11.1685 10.7219 10.6194ZM11.7981 5.56757C12.6401 6.40953 13.0611 7.43087 13.0611 8.63158C13.0611 9.8323 12.6401 10.8536 11.7981 11.6956C10.9561 12.5376 9.93481 12.9585 8.73409 12.9585C7.53338 12.9585 6.51204 12.5376 5.67007 11.6956C4.82811 10.8536 4.40713 9.8323 4.40713 8.63158C4.40713 7.43087 4.82811 6.40953 5.67007 5.56757C6.51204 4.7256 7.53338 4.30462 8.73409 4.30462C9.93481 4.30462 10.9561 4.7256 11.7981 5.56757ZM13.9506 3.41507C14.1483 3.61275 14.2471 3.85069 14.2471 4.12891C14.2471 4.40712 14.1483 4.64507 13.9506 4.84274C13.7529 5.04042 13.515 5.13926 13.2368 5.13926C12.9586 5.13926 12.7206 5.04042 12.5229 4.84274C12.3253 4.64507 12.2264 4.40712 12.2264 4.12891C12.2264 3.85069 12.3253 3.61275 12.5229 3.41507C12.7206 3.21739 12.9586 3.11855 13.2368 3.11855C13.515 3.11855 13.7529 3.21739 13.9506 3.41507ZM9.56873 1.71283C9.06356 1.71283 8.78534 1.71283 8.73409 1.71283C8.68284 1.71283 8.40097 1.71283 7.88847 1.71283C7.38329 1.70551 6.99891 1.70551 6.73534 1.71283C6.47177 1.71283 6.11668 1.72382 5.67007 1.74578C5.23079 1.76042 4.85373 1.79703 4.53891 1.8556C4.23141 1.90685 3.9715 1.97274 3.75918 2.05328C3.39311 2.19971 3.07097 2.41203 2.79275 2.69024C2.51454 2.96846 2.30222 3.2906 2.15579 3.65667C2.07525 3.869 2.0057 4.13257 1.94713 4.44739C1.89588 4.75489 1.85927 5.13194 1.8373 5.57855C1.82266 6.01783 1.81168 6.36926 1.80436 6.63283C1.80436 6.89641 1.80436 7.28444 1.80436 7.79694C1.81168 8.30212 1.81534 8.58033 1.81534 8.63158C1.81534 8.68283 1.81168 8.96471 1.80436 9.47721C1.80436 9.98239 1.80436 10.3668 1.80436 10.6303C1.81168 10.8939 1.82266 11.249 1.8373 11.6956C1.85927 12.1349 1.89588 12.5119 1.94713 12.8268C2.0057 13.1343 2.07525 13.3942 2.15579 13.6065C2.30222 13.9726 2.51454 14.2947 2.79275 14.5729C3.07097 14.8511 3.39311 15.0635 3.75918 15.2099C3.9715 15.2904 4.23141 15.36 4.53891 15.4185C4.85373 15.4698 5.23079 15.5064 5.67007 15.5284C6.11668 15.543 6.47177 15.554 6.73534 15.5613C6.99891 15.5613 7.38329 15.5613 7.88847 15.5613C8.40097 15.554 8.68284 15.5503 8.73409 15.5503C8.78534 15.5503 9.06356 15.554 9.56873 15.5613C10.0812 15.5613 10.4693 15.5613 10.7328 15.5613C10.9964 15.554 11.3478 15.543 11.7871 15.5284C12.2337 15.5064 12.6108 15.4698 12.9183 15.4185C13.2331 15.36 13.4967 15.2904 13.709 15.2099C14.0751 15.0635 14.3972 14.8511 14.6754 14.5729C14.9536 14.2947 15.166 13.9726 15.3124 13.6065C15.3929 13.3942 15.4588 13.1343 15.5101 12.8268C15.5686 12.5119 15.6053 12.1349 15.6199 11.6956C15.6419 11.249 15.6528 10.8939 15.6528 10.6303C15.6602 10.3668 15.6602 9.98239 15.6528 9.47721C15.6528 8.96471 15.6528 8.68283 15.6528 8.63158C15.6528 8.58033 15.6528 8.30212 15.6528 7.79694C15.6602 7.28444 15.6602 6.89641 15.6528 6.63283C15.6528 6.36926 15.6419 6.01783 15.6199 5.57855C15.6053 5.13194 15.5686 4.75489 15.5101 4.44739C15.4588 4.13257 15.3929 3.869 15.3124 3.65667C15.166 3.2906 14.9536 2.96846 14.6754 2.69024C14.3972 2.41203 14.0751 2.19971 13.709 2.05328C13.4967 1.97274 13.2331 1.90685 12.9183 1.8556C12.6108 1.79703 12.2337 1.76042 11.7871 1.74578C11.3478 1.72382 10.9964 1.71283 10.7328 1.71283C10.4693 1.70551 10.0812 1.70551 9.56873 1.71283ZM17.1135 5.15024C17.1501 5.79453 17.1684 6.95498 17.1684 8.63158C17.1684 10.3082 17.1501 11.4686 17.1135 12.1129C17.0403 13.6358 16.5863 14.8145 15.7517 15.6492C14.917 16.4838 13.7383 16.9377 12.2154 17.011C11.5711 17.0476 10.4107 17.0659 8.73409 17.0659C7.05748 17.0659 5.89704 17.0476 5.25275 17.011C3.72989 16.9377 2.55114 16.4838 1.7165 15.6492C0.881858 14.8145 0.42793 13.6358 0.354715 12.1129C0.318108 11.4686 0.299805 10.3082 0.299805 8.63158C0.299805 6.95498 0.318108 5.79453 0.354715 5.15024C0.42793 3.62739 0.881858 2.44864 1.7165 1.61399C2.55114 0.779351 3.72989 0.325423 5.25275 0.252209C5.89704 0.215602 7.05748 0.197298 8.73409 0.197298C10.4107 0.197298 11.5711 0.215602 12.2154 0.252209C13.7383 0.325423 14.917 0.779351 15.7517 1.61399C16.5863 2.44864 17.0403 3.62739 17.1135 5.15024Z" fill="white"/>
</svg>
